<svg xmlns="http://www.w3.org/2000/svg" viewBox="0 0 900 600" width="48" height="32" role="img" aria-label="Slovak flag">
	<rect width="900" height="200" y="0" fill="#ffffff"/>
	<rect width="900" height="200" y="200" fill="#0b4ea2"/>
	<rect width="900" height="200" y="400" fill="#ee1c25"/>
	<path d="M250 150c-56 0-102 43-102 97v100c0 120 88 194 102 202 14-8 102-82 102-202V247c0-54-46-97-102-97z" fill="#ffffff"/>
	<path d="M250 166c-47 0-86 36-86 81v100c0 105 76 173 86 180 10-7 86-75 86-180V247c0-45-39-81-86-81z" fill="#d7141a"/>
	<path d="M214 235h72v22h-72zM236 213h28v88h-28z" fill="#ffffff"/>
	<path d="M201 296h98v28h-98z" fill="#ffffff"/>
	<path d="M185 343c20-14 43-22 65-22s45 8 65 22c-9 15-16 33-20 53-14-13-29-20-45-20s-31 7-45 20c-4-20-11-38-20-53z" fill="#0b4ea2"/>
</svg>